<svg preserveAspectRatio="none" width="100%" height="100%" overflow="visible" style="display: block;" viewBox="0 0 19 8" fill="none" xmlns="http://www.w3.org/2000/svg">
<path id="icon" d="M2.16667 7L0.25 5.125C0.0833333 4.95833 0 4.76389 0 4.54167C0 4.31945 0.0833333 4.125 0.25 3.95833C1.47222 2.63889 2.88194 1.64931 4.47917 0.989583C6.07639 0.329861 7.69444 0 9.33333 0C10.9722 0 12.5868 0.329861 14.1771 0.989583C15.7674 1.64931 17.1806 2.63889 18.4167 3.95833C18.5833 4.125 18.6667 4.31945 18.6667 4.54167C18.6667 4.76389 18.5833 4.95833 18.4167 5.125L16.5 7C16.3472 7.15278 16.1701 7.23611 15.9687 7.25C15.7674 7.26389 15.5833 7.20833 15.4167 7.08333L13 5.25C12.8889 5.16667 12.8056 5.06945 12.75 4.95833C12.6944 4.84722 12.6667 4.72222 12.6667 4.58333V2.20833C12.1389 2.04167 11.5972 1.90972 11.0417 1.8125C10.4861 1.71528 9.91667 1.66667 9.33333 1.66667C8.75 1.66667 8.18056 1.71528 7.625 1.8125C7.06944 1.90972 6.52778 2.04167 6 2.20833V4.58333C6 4.72222 5.97222 4.84722 5.91667 4.95833C5.86111 5.06945 5.77778 5.16667 5.66667 5.25L3.25 7.08333C3.08333 7.20833 2.89931 7.26389 2.69792 7.25C2.49653 7.23611 2.31944 7.15278 2.16667 7ZM4.33333 2.875C3.93056 3.08333 3.54167 3.32292 3.16667 3.59375C2.79167 3.86458 2.40278 4.16667 2 4.5L2.83333 5.33333L4.33333 4.16667V2.875ZM14.3333 2.91667V4.16667L15.8333 5.33333L16.6667 4.54167C16.2639 4.18056 15.875 3.86806 15.5 3.60417C15.125 3.34028 14.7361 3.11111 14.3333 2.91667Z" fill="var(--fill-0, white)"/>
</svg>
