<svg preserveAspectRatio="none" width="100%" height="100%" overflow="visible" style="display: block;" viewBox="0 0 174 167" fill="none" xmlns="http://www.w3.org/2000/svg">
<path id="icon" d="M86.6667 166.679L74.1 154.871C59.5111 141.094 47.45 129.21 37.9167 119.219C28.3833 109.227 20.8 100.295 15.1667 92.4229C9.53334 84.3993 5.56111 77.0569 3.25 70.3958C1.08333 63.7347 0 56.9222 0 49.9583C0 35.7278 4.55 23.8438 13.65 14.3063C22.75 4.76875 34.0889 0 47.6667 0C55.1778 0 62.3278 1.66528 69.1167 4.99583C75.9056 8.32639 81.7556 13.0194 86.6667 19.075C91.5778 13.0194 97.4278 8.32639 104.217 4.99583C111.006 1.66528 118.156 0 125.667 0C139.244 0 150.583 4.76875 159.683 14.3063C168.783 23.8438 173.333 35.7278 173.333 49.9583C173.333 56.9222 172.178 63.7347 169.867 70.3958C167.7 77.0569 163.8 84.3993 158.167 92.4229C152.533 100.295 144.95 109.227 135.417 119.219C125.883 129.21 113.822 141.094 99.2333 154.871L86.6667 166.679ZM86.6667 142.154C100.533 129.135 111.944 118.008 120.9 108.773C129.856 99.3868 136.933 91.2875 142.133 84.475C147.333 77.5111 150.944 71.3799 152.967 66.0813C154.989 60.6313 156 55.257 156 49.9583C156 40.875 153.111 33.3056 147.333 27.25C141.556 21.1945 134.333 18.1667 125.667 18.1667C118.878 18.1667 112.594 20.2104 106.817 24.2979C101.039 28.234 97.0667 33.3056 94.9 39.5125H78.4333C76.2667 33.3056 72.2945 28.234 66.5167 24.2979C60.7389 20.2104 54.4556 18.1667 47.6667 18.1667C39 18.1667 31.7778 21.1945 26 27.25C20.2222 33.3056 17.3333 40.875 17.3333 49.9583C17.3333 55.257 18.3444 60.6313 20.3667 66.0813C22.3889 71.3799 26 77.5111 31.2 84.475C36.4 91.2875 43.4778 99.3868 52.4333 108.773C61.3889 118.008 72.8 129.135 86.6667 142.154Z" fill="var(--fill-0, #006156)"/>
</svg>
