<svg preserveAspectRatio="none" width="100%" height="100%" overflow="visible" style="display: block;" viewBox="0 0 174 175" fill="none" xmlns="http://www.w3.org/2000/svg">
<path id="icon" d="M86.6667 174.325L74.1 161.975C59.5111 147.567 47.45 135.138 37.9167 124.688C28.3833 114.238 20.8 104.896 15.1667 96.6625C9.53334 88.2708 5.56111 80.5917 3.25 73.625C1.08333 66.6583 0 59.5333 0 52.25C0 37.3667 4.55 24.9375 13.65 14.9625C22.75 4.9875 34.0889 0 47.6667 0C55.1778 0 62.3278 1.74167 69.1167 5.225C75.9056 8.70834 81.7556 13.6167 86.6667 19.95C91.5778 13.6167 97.4278 8.70834 104.217 5.225C111.006 1.74167 118.156 0 125.667 0C139.244 0 150.583 4.9875 159.683 14.9625C168.783 24.9375 173.333 37.3667 173.333 52.25C173.333 59.5333 172.178 66.6583 169.867 73.625C167.7 80.5917 163.8 88.2708 158.167 96.6625C152.533 104.896 144.95 114.238 135.417 124.688C125.883 135.138 113.822 147.567 99.2333 161.975L86.6667 174.325ZM86.6667 148.675C100.533 135.058 111.944 123.421 120.9 113.762C129.856 103.946 136.933 95.475 142.133 88.35C147.333 81.0667 150.944 74.6542 152.967 69.1125C154.989 63.4125 156 57.7917 156 52.25C156 42.75 153.111 34.8333 147.333 28.5C141.556 22.1667 134.333 19 125.667 19C118.878 19 112.594 21.1375 106.817 25.4125C101.039 29.5292 97.0667 34.8333 94.9 41.325H78.4333C76.2667 34.8333 72.2945 29.5292 66.5167 25.4125C60.7389 21.1375 54.4556 19 47.6667 19C39 19 31.7778 22.1667 26 28.5C20.2222 34.8333 17.3333 42.75 17.3333 52.25C17.3333 57.7917 18.3444 63.4125 20.3667 69.1125C22.3889 74.6542 26 81.0667 31.2 88.35C36.4 95.475 43.4778 103.946 52.4333 113.762C61.3889 123.421 72.8 135.058 86.6667 148.675Z" fill="var(--fill-0, #006B60)"/>
</svg>
