<svg preserveAspectRatio="none" width="100%" height="100%" overflow="visible" style="display: block;" viewBox="0 0 24 24" fill="none" xmlns="http://www.w3.org/2000/svg">
<g id="vital_signs">
<mask id="mask0_5487_3547" style="mask-type:alpha" maskUnits="userSpaceOnUse" x="0" y="0" width="24" height="24">
<rect id="Bounding box" width="24" height="24" fill="var(--fill-0, #D9D9D9)"/>
</mask>
<g mask="url(#mask0_5487_3547)">
<path id="vital_signs_2" d="M9 20C8.68333 20 8.4 19.9083 8.15 19.725C7.9 19.5417 7.71667 19.3083 7.6 19.025L5.3 13H1V11H6.7L9 17.1L13.6 4.975C13.7167 4.69167 13.9 4.45833 14.15 4.275C14.4 4.09167 14.6833 4 15 4C15.3167 4 15.6 4.09167 15.85 4.275C16.1 4.45833 16.2833 4.69167 16.4 4.975L18.7 11H23V13H17.3L15 6.9L10.4 19.025C10.2833 19.3083 10.1 19.5417 9.85 19.725C9.6 19.9083 9.31667 20 9 20Z" fill="var(--fill-0, #4F378A)"/>
</g>
</g>
</svg>
