<svg preserveAspectRatio="none" width="100%" height="100%" overflow="visible" style="display: block;" viewBox="0 0 16 16" fill="none" xmlns="http://www.w3.org/2000/svg">
<g id="diamond_shine">
<mask id="mask0_5487_3483" style="mask-type:alpha" maskUnits="userSpaceOnUse" x="0" y="0" width="16" height="16">
<rect id="Bounding box" width="16" height="16" fill="var(--fill-0, #D9D9D9)"/>
</mask>
<g mask="url(#mask0_5487_3483)">
<path id="diamond_shine_2" d="M8.00001 14.6667L2.00001 8.73333L5.33334 4.66667H10.6667L14 8.73333L8.00001 14.6667ZM3.05001 4.66667L1.63334 3.25L2.58334 2.31667L4.00001 3.73333L3.05001 4.66667ZM7.33334 3.33333V1.33333H8.66668V3.33333H7.33334ZM12.9167 4.66667L11.9667 3.71667L13.3833 2.3L14.3333 3.25L12.9167 4.66667ZM8.00001 12.8L11.5 9.33333H4.50001L8.00001 12.8ZM5.96668 6L4.31668 8H11.6833L10.0333 6H5.96668Z" fill="var(--fill-0, #4F378A)"/>
</g>
</g>
</svg>
