<svg preserveAspectRatio="none" width="100%" height="100%" overflow="visible" style="display: block;" viewBox="0 0 15 14" fill="none" xmlns="http://www.w3.org/2000/svg">
<path id="icon" d="M7.5 13.7625L6.4125 12.7875C5.15 11.65 4.10625 10.6688 3.28125 9.84375C2.45625 9.01875 1.8 8.28125 1.3125 7.63125C0.825 6.96875 0.48125 6.3625 0.28125 5.8125C0.09375 5.2625 0 4.7 0 4.125C0 2.95 0.39375 1.96875 1.18125 1.18125C1.96875 0.39375 2.95 0 4.125 0C4.775 0 5.39375 0.1375 5.98125 0.4125C6.56875 0.6875 7.075 1.075 7.5 1.575C7.925 1.075 8.43125 0.6875 9.01875 0.4125C9.60625 0.1375 10.225 0 10.875 0C12.05 0 13.0313 0.39375 13.8188 1.18125C14.6063 1.96875 15 2.95 15 4.125C15 4.7 14.9 5.2625 14.7 5.8125C14.5125 6.3625 14.175 6.96875 13.6875 7.63125C13.2 8.28125 12.5438 9.01875 11.7188 9.84375C10.8938 10.6688 9.85 11.65 8.5875 12.7875L7.5 13.7625ZM7.5 11.7375C8.7 10.6625 9.6875 9.74375 10.4625 8.98125C11.2375 8.20625 11.85 7.5375 12.3 6.975C12.75 6.4 13.0625 5.89375 13.2375 5.45625C13.4125 5.00625 13.5 4.5625 13.5 4.125C13.5 3.375 13.25 2.75 12.75 2.25C12.25 1.75 11.625 1.5 10.875 1.5C10.2875 1.5 9.74375 1.66875 9.24375 2.00625C8.74375 2.33125 8.4 2.75 8.2125 3.2625H6.7875C6.6 2.75 6.25625 2.33125 5.75625 2.00625C5.25625 1.66875 4.7125 1.5 4.125 1.5C3.375 1.5 2.75 1.75 2.25 2.25C1.75 2.75 1.5 3.375 1.5 4.125C1.5 4.5625 1.5875 5.00625 1.7625 5.45625C1.9375 5.89375 2.25 6.4 2.7 6.975C3.15 7.5375 3.7625 8.20625 4.5375 8.98125C5.3125 9.74375 6.3 10.6625 7.5 11.7375Z" fill="var(--fill-0, #6750A4)"/>
</svg>
