<svg preserveAspectRatio="none" width="100%" height="100%" overflow="visible" style="display: block;" viewBox="0 0 18 20" fill="none" xmlns="http://www.w3.org/2000/svg">
<path id="Icon" d="M9.2101 0.0079901C9.69805 0.0435741 10.1707 0.202018 10.5828 0.471413C11.053 0.778803 11.4245 1.21687 11.6526 1.73207L12.1849 2.92702L12.1867 2.93146L12.2317 3.0229C12.3437 3.23163 12.5107 3.40599 12.7155 3.52628L12.8064 3.57422C13.0207 3.67678 13.2594 3.71883 13.4967 3.69407L14.7899 3.55558L15 3.54137C15.489 3.52515 15.9753 3.63311 16.4132 3.85742C16.9139 4.11385 17.3304 4.51059 17.6111 5H17.6102C17.8913 5.48915 18.0255 6.04982 17.996 6.61399C17.9701 7.10768 17.8203 7.58562 17.5617 8.00337L17.4443 8.17827L16.679 9.23562C16.5184 9.45769 16.4317 9.72543 16.4318 10V10.0044C16.4304 10.2786 16.5156 10.5462 16.6745 10.7688L17.439 11.8262H17.4399C17.7705 12.283 17.9621 12.8271 17.9916 13.3913C18.0211 13.9555 17.8878 14.5162 17.6067 15.0053L17.6058 15.0044C17.3251 15.4938 16.9103 15.8915 16.4097 16.1479C15.9091 16.4043 15.345 16.5092 14.7864 16.4498H14.7855L13.4931 16.3113V16.3104C13.2218 16.282 12.9483 16.3411 12.7119 16.4782L12.711 16.4773C12.4772 16.6137 12.2918 16.8213 12.1814 17.0694L12.1823 17.0703L11.6535 18.2653C11.4255 18.7816 11.0538 19.2207 10.5828 19.5286C10.1707 19.798 9.69805 19.9564 9.2101 19.992L9.00001 20C8.43823 20.0001 7.88832 19.8364 7.41726 19.5286C7.00518 19.2592 6.66874 18.8893 6.4383 18.4553L6.34561 18.2653L5.81774 17.0703V17.0694C5.7071 16.8189 5.51977 16.6099 5.28368 16.4728V16.4737C5.04699 16.3364 4.77332 16.2764 4.50157 16.305L4.50246 16.3059L3.21013 16.4444H3.20836C2.64999 16.5034 2.08618 16.3988 1.58589 16.1426C1.1482 15.9183 0.775591 15.5862 0.501002 15.1793L0.388894 15C0.107903 14.5109 -0.0254869 13.9501 0.00402009 13.386C0.0335685 12.8218 0.225123 12.2785 0.555732 11.8217L1.32018 10.7644L1.37756 10.6792C1.48389 10.5046 1.54775 10.307 1.56382 10.103L1.56735 10C1.5674 9.72542 1.48075 9.45769 1.32018 9.23562V9.23473L0.555732 8.17827C0.225123 7.72149 0.0335684 7.17819 0.00402009 6.61399C-0.0254869 6.04989 0.107903 5.4891 0.388894 5L0.500119 4.82156C0.774639 4.41407 1.14778 4.08187 1.58589 3.85742C2.02404 3.63299 2.51086 3.52507 3.00003 3.54137L3.20924 3.55558L4.50599 3.69407H4.5051C4.77701 3.72279 5.05127 3.66367 5.28809 3.52628C5.5221 3.38878 5.70726 3.18081 5.81685 2.93146L5.81774 2.92969L6.34561 1.73473L6.4383 1.54474C6.66874 1.11074 7.00518 0.740797 7.41726 0.471413C7.88832 0.163566 8.43823 -9.22186e-05 9.00001 3.89841e-08L9.2101 0.0079901ZM10.8061 10C10.8061 8.99587 9.99666 8.18186 8.99824 8.18182C7.9998 8.18182 7.19039 8.99585 7.19039 10C7.19039 11.0042 7.9998 11.8182 8.99824 11.8182C9.99666 11.8181 10.8061 11.0041 10.8061 10ZM3.36549 10.2459C3.3206 10.8174 3.11988 11.367 2.78288 11.8333V11.8342L2.01755 12.8915C1.89284 13.0638 1.82035 13.2691 1.80922 13.4819C1.79813 13.6946 1.84798 13.9065 1.95399 14.0909H1.95487C2.06101 14.2755 2.2179 14.4256 2.40683 14.5224C2.59552 14.619 2.808 14.658 3.01857 14.636L4.3109 14.4984L4.31267 14.4975L4.5563 14.4815C5.04477 14.4688 5.52927 14.573 5.97045 14.7843L6.1876 14.8988L6.39416 15.0302C6.86383 15.3551 7.23669 15.8048 7.46934 16.3317L7.9981 17.5266L8.07225 17.6678C8.15635 17.8019 8.26915 17.9163 8.40239 18.0034C8.58019 18.1196 8.78796 18.1819 9.00001 18.1818L9.15802 18.1703C9.31407 18.1474 9.46436 18.0905 9.59762 18.0034C9.77522 17.8872 9.91593 17.7214 10.0019 17.5266L10.5298 16.3317L10.5307 16.3308L10.6384 16.1106C10.9095 15.6095 11.3135 15.1915 11.8071 14.9041L11.808 14.9032L12.0252 14.7887C12.5396 14.5424 13.1132 14.4427 13.6829 14.5028H13.6847L14.977 14.6413H14.9761C15.1869 14.6638 15.3999 14.6244 15.5888 14.5277C15.7777 14.4309 15.9348 14.2809 16.0407 14.0962V14.0953C16.1468 13.9108 16.1975 13.6991 16.1864 13.4863C16.178 13.3269 16.1353 13.1719 16.0619 13.0318L15.9781 12.8968L15.2127 11.8386L15.211 11.8368C14.8263 11.3013 14.6207 10.6562 14.6239 9.99556C14.6248 9.33832 14.8328 8.69837 15.2171 8.16673V8.16584L15.9825 7.10849L16.0663 6.97354C16.1398 6.83324 16.1824 6.6777 16.1908 6.51811C16.1991 6.35866 16.1723 6.20007 16.114 6.05291L16.0451 5.90909C15.9392 5.72446 15.782 5.5744 15.5932 5.47763C15.4043 5.38089 15.1913 5.34072 14.9806 5.3631L14.9814 5.36399L13.6882 5.5016L13.6874 5.50249C13.036 5.57128 12.3797 5.4303 11.8124 5.10121L11.8098 5.10032C11.2458 4.77078 10.7997 4.27048 10.5351 3.67099L10.0028 2.47603L10.0019 2.47337C9.91593 2.27861 9.77522 2.11284 9.59762 1.99663C9.46436 1.90951 9.31407 1.85258 9.15802 1.82972L9.00001 1.81818C8.78796 1.81815 8.58019 1.8804 8.40239 1.99663C8.26916 2.08375 8.15635 2.19807 8.07225 2.33221L7.9981 2.47337L7.46934 3.66566L7.47022 3.66655C7.20587 4.26798 6.75913 4.76998 6.19378 5.10032L6.19113 5.10121C5.62386 5.4303 4.96751 5.57128 4.3162 5.50249L4.31532 5.5016L3.01857 5.36399V5.3631C2.808 5.34083 2.59553 5.38101 2.40683 5.47763C2.21791 5.5744 2.06082 5.72439 1.95487 5.90909H1.95399C1.84798 6.09355 1.79813 6.30535 1.80922 6.51811C1.82035 6.73093 1.89284 6.93619 2.01755 7.10849L2.78288 8.16584V8.16673C3.168 8.69952 3.37528 9.34129 3.3752 10L3.36549 10.2459ZM12.6139 10C12.6139 12.0083 10.9951 13.6363 8.99824 13.6364C7.00135 13.6364 5.38255 12.0083 5.38255 10C5.38255 7.99169 7.00135 6.36364 8.99824 6.36364C10.9951 6.36367 12.6139 7.99172 12.6139 10Z" fill="var(--fill-0, #1E1E1E)"/>
</svg>
