<svg preserveAspectRatio="none" width="100%" height="100%" overflow="visible" style="display: block;" viewBox="0 0 44 44" fill="none" xmlns="http://www.w3.org/2000/svg">
<path id="Active indicator (Stroke)" fill-rule="evenodd" clip-rule="evenodd" d="M21.2243 3.1351C21.7024 0.978324 23.8385 -0.382474 25.9952 0.0956707L27.6988 0.473345L29.5296 1.05058L31.303 1.78517L33.0057 2.67154L34.6247 3.70293L36.1476 4.8715L37.5629 6.16835L38.8597 7.58362L40.0283 9.10653L41.0597 10.7255L41.946 12.4282L42.6806 14.2016L43.2579 16.0324L43.6733 17.9065L43.9239 19.8096L44.0076 21.7274L43.9239 23.6452L43.6733 25.5483L43.2579 27.4224L42.6806 29.2531L41.946 31.0266L41.0597 32.7293L40.0283 34.3483L38.8597 35.8712L37.5629 37.2864L36.1476 38.5833L34.6247 39.7519L33.0057 40.7833L31.303 41.6696L29.5296 42.4042L27.6988 42.9814L25.8247 43.3969L23.9216 43.6475L22.0038 43.7312L20.0861 43.6475L18.1829 43.3969L16.3088 42.9814L14.4781 42.4042L12.7046 41.6696L11.0019 40.7833L9.38294 39.7519L7.86003 38.5833L6.44477 37.2864L5.14791 35.8712L3.97934 34.3483L2.94795 32.7293L2.06159 31.0266L1.32699 29.2531L0.749761 27.4224L0.334287 25.5483L0.0837305 23.6452L0 21.7274L0.0837305 19.8096L0.334287 17.9065L0.711961 16.2029C1.19011 14.0461 3.32613 12.6853 5.4829 13.1635C7.63968 13.6416 9.00047 15.7776 8.52233 17.9344L8.22025 19.297L8.06088 20.5075L8.00762 21.7274L8.06088 22.9472L8.22025 24.1578L8.48453 25.3499L8.8517 26.5144L9.31896 27.6424L9.88276 28.7255L10.5388 29.7553L11.2821 30.724L12.107 31.6242L13.0072 32.4491L13.9759 33.1924L15.0057 33.8484L16.0888 34.4122L17.2168 34.8795L18.3813 35.2467L19.5734 35.5109L20.784 35.6703L22.0038 35.7236L23.2237 35.6703L24.4342 35.5109L25.6263 35.2467L26.7908 34.8795L27.9189 34.4122L29.0019 33.8484L30.0317 33.1924L31.0004 32.4491L31.9006 31.6242L32.7255 30.724L33.4688 29.7553L34.1249 28.7255L34.6887 27.6424L35.1559 26.5144L35.5231 25.3499L35.7874 24.1578L35.9467 22.9472L36 21.7274L35.9467 20.5075L35.7874 19.297L35.5231 18.1049L35.1559 16.9404L34.6887 15.8123L34.1249 14.7293L33.4688 13.6995L32.7255 12.7308L31.9006 11.8306L31.0004 11.0057L30.0317 10.2624L29.0019 9.60634L27.9189 9.04254L26.7908 8.57528L25.6263 8.20811L24.2637 7.90604C22.1069 7.42789 20.7461 5.29187 21.2243 3.1351Z" fill="var(--fill-0, #6750A4)"/>
</svg>
