<svg preserveAspectRatio="none" width="100%" height="100%" overflow="visible" style="display: block;" viewBox="0 0 21 40" fill="none" xmlns="http://www.w3.org/2000/svg">
<path id="Active indicator" fill-rule="evenodd" clip-rule="evenodd" d="M0.0173374 1.73917C0.161513 0.644054 1.16616 -0.126838 2.26128 0.0173374L3.90472 0.233701L5.6083 0.611375L7.27248 1.13609L8.88459 1.80385L10.4324 2.60957L11.904 3.54713L13.2884 4.60938L14.5749 5.78825L15.7538 7.07476L16.816 8.45911L17.7536 9.93078L18.5593 11.4786L19.2271 13.0907L19.7518 14.7549L20.1295 16.4584L20.3572 18.1885L20.4333 19.9317L20.3572 21.675L20.1295 23.405L19.7518 25.1086L19.2271 26.7728L18.5593 28.3849L17.7536 29.9327L16.816 31.4044L15.7538 32.7887L14.5749 34.0752L13.2884 35.2541L11.904 36.3163L10.4324 37.2539L8.88459 38.0596L7.27248 38.7274L5.6083 39.2521L3.90472 39.6298L2.26128 39.8461C1.16616 39.9903 0.161512 39.2194 0.0173372 38.1243C-0.126837 37.0292 0.644056 36.0245 1.73918 35.8803L3.20949 35.6868L4.57203 35.3847L5.90307 34.965L7.19253 34.4309L8.43047 33.7865L9.60755 33.0366L10.7148 32.187L11.7438 31.2441L12.6867 30.2151L13.5363 29.1079L14.2862 27.9308L14.9306 26.6928L15.4647 25.4034L15.8844 24.0723L16.1865 22.7098L16.3686 21.3261L16.4295 19.9317L16.3686 18.5374L16.1865 17.1537L15.8844 15.7911L15.4647 14.4601L14.9306 13.1706L14.2862 11.9327L13.5363 10.7556L12.6867 9.64836L11.7438 8.61937L10.7148 7.67648L9.60756 6.82686L8.43047 6.07697L7.19251 5.43254L5.90309 4.89844L4.57204 4.47876L3.20946 4.17668L1.73917 3.98312C0.644054 3.83894 -0.126838 2.83429 0.0173374 1.73917Z" fill="var(--fill-0, #6750A4)"/>
</svg>
