<svg preserveAspectRatio="none" width="100%" height="100%" overflow="visible" style="display: block;" viewBox="0 0 18 18" fill="none" xmlns="http://www.w3.org/2000/svg">
<g id="monitor_weight">
<mask id="mask0_5487_3473" style="mask-type:alpha" maskUnits="userSpaceOnUse" x="0" y="0" width="18" height="18">
<rect id="Bounding box" width="18" height="18" fill="var(--fill-0, #D9D9D9)"/>
</mask>
<g mask="url(#mask0_5487_3473)">
<path id="monitor_weight_2" d="M9 9C9.625 9 10.1562 8.78125 10.5938 8.34375C11.0313 7.90625 11.25 7.375 11.25 6.75C11.25 6.125 11.0313 5.59375 10.5938 5.15625C10.1562 4.71875 9.625 4.5 9 4.5C8.375 4.5 7.84375 4.71875 7.40625 5.15625C6.96875 5.59375 6.75 6.125 6.75 6.75C6.75 7.375 6.96875 7.90625 7.40625 8.34375C7.84375 8.78125 8.375 9 9 9ZM7.875 7.125C7.775 7.125 7.6875 7.0875 7.6125 7.0125C7.5375 6.9375 7.5 6.85 7.5 6.75C7.5 6.65 7.5375 6.5625 7.6125 6.4875C7.6875 6.4125 7.775 6.375 7.875 6.375C7.975 6.375 8.0625 6.4125 8.1375 6.4875C8.2125 6.5625 8.25 6.65 8.25 6.75C8.25 6.85 8.2125 6.9375 8.1375 7.0125C8.0625 7.0875 7.975 7.125 7.875 7.125ZM9 7.125C8.9 7.125 8.8125 7.0875 8.7375 7.0125C8.6625 6.9375 8.625 6.85 8.625 6.75C8.625 6.65 8.6625 6.5625 8.7375 6.4875C8.8125 6.4125 8.9 6.375 9 6.375C9.1 6.375 9.1875 6.4125 9.2625 6.4875C9.3375 6.5625 9.375 6.65 9.375 6.75C9.375 6.85 9.3375 6.9375 9.2625 7.0125C9.1875 7.0875 9.1 7.125 9 7.125ZM10.125 7.125C10.025 7.125 9.9375 7.0875 9.8625 7.0125C9.7875 6.9375 9.75 6.85 9.75 6.75C9.75 6.65 9.7875 6.5625 9.8625 6.4875C9.9375 6.4125 10.025 6.375 10.125 6.375C10.225 6.375 10.3125 6.4125 10.3875 6.4875C10.4625 6.5625 10.5 6.65 10.5 6.75C10.5 6.85 10.4625 6.9375 10.3875 7.0125C10.3125 7.0875 10.225 7.125 10.125 7.125ZM3.75 15.75C3.3375 15.75 2.98438 15.6031 2.69063 15.3094C2.39688 15.0156 2.25 14.6625 2.25 14.25V3.75C2.25 3.3375 2.39688 2.98438 2.69063 2.69063C2.98438 2.39688 3.3375 2.25 3.75 2.25H14.25C14.6625 2.25 15.0156 2.39688 15.3094 2.69063C15.6031 2.98438 15.75 3.3375 15.75 3.75V14.25C15.75 14.6625 15.6031 15.0156 15.3094 15.3094C15.0156 15.6031 14.6625 15.75 14.25 15.75H3.75ZM3.75 14.25H14.25V3.75H3.75V14.25Z" fill="var(--fill-0, #6750A4)"/>
</g>
</g>
</svg>
