<svg preserveAspectRatio="none" width="100%" height="100%" overflow="visible" style="display: block;" viewBox="0 0 23 44" fill="none" xmlns="http://www.w3.org/2000/svg">
<path id="Active indicator" fill-rule="evenodd" clip-rule="evenodd" d="M0.0956707 3.1351C0.573816 0.978324 2.70984 -0.382474 4.86661 0.0956707L6.57019 0.473345L8.40094 1.05058L10.1744 1.78517L11.8771 2.67154L13.4961 3.70293L15.019 4.8715L16.4342 6.16835L17.7311 7.58362L18.8997 9.10653L19.931 10.7255L20.8174 12.4282L21.552 14.2016L22.1292 16.0324L22.5447 17.9065L22.7953 19.8096L22.879 21.7274L22.7953 23.6452L22.5447 25.5483L22.1292 27.4224L21.552 29.2531L20.8174 31.0266L19.931 32.7293L18.8997 34.3483L17.7311 35.8712L16.4342 37.2864L15.019 38.5833L13.4961 39.7519L11.8771 40.7833L10.1744 41.6696L8.40094 42.4042L6.73676 42.9289C4.62986 43.5932 2.38337 42.4238 1.71906 40.3169C1.05476 38.21 2.22421 35.9635 4.33111 35.2992L5.66215 34.8795L6.79024 34.4122L7.87329 33.8484L8.90307 33.1924L9.87176 32.4491L10.772 31.6242L11.5969 30.724L12.3402 29.7553L12.9962 28.7255L13.56 27.6424L14.0273 26.5144L14.3945 25.3499L14.6587 24.1578L14.8181 22.9472L14.8714 21.7274L14.8181 20.5075L14.6587 19.297L14.3945 18.1049L14.0273 16.9404L13.56 15.8124L12.9962 14.7293L12.3402 13.6995L11.5969 12.7308L10.772 11.8306L9.87177 11.0057L8.90307 10.2624L7.87328 9.60634L6.79023 9.04254L5.66216 8.57528L4.49767 8.20811L3.1351 7.90604C0.978324 7.42789 -0.382474 5.29187 0.0956707 3.1351Z" fill="var(--fill-0, #6750A4)"/>
</svg>
