<svg preserveAspectRatio="none" width="100%" height="100%" overflow="visible" style="display: block;" viewBox="0 0 73 85" fill="none" xmlns="http://www.w3.org/2000/svg">
<g id="Badge">
<ellipse id="Ellipse 11" cx="36.3871" cy="42.3182" rx="33.5" ry="33.6818" fill="var(--fill-0, #403A1C)"/>
<path id="Vector 1" fill-rule="evenodd" clip-rule="evenodd" d="M17.4897 3.45455V17.8329L22.214 22.4545H36.3871H50.5602L55.2846 17.8329V3.45455H36.3871H17.4897Z" fill="var(--fill-0, #ADA788)"/>
<rect id="Rectangle 15" x="29.5153" y="3.45455" width="13.7436" height="19" fill="var(--fill-0, #625E47)"/>
<path id="Rectangle 17" d="M32.0922 22.4545H40.682V22.7727C40.682 24.9819 38.8911 26.7727 36.682 26.7727H36.0922C33.8831 26.7727 32.0922 24.9819 32.0922 22.7727V22.4545Z" fill="var(--fill-0, #ADA788)"/>
<rect id="Rectangle 16" x="14.9128" width="42.9487" height="3.45455" rx="1.72727" fill="var(--fill-0, #464230)"/>
<g id="Star 1" filter="url(#filter0_d_5487_3438)">
<path d="M32.7415 28.8021C34.1585 25.6634 38.6157 25.6634 40.0328 28.8021L42.9726 35.3135C43.5483 36.5886 44.7483 37.4703 46.1372 37.6385L53.2504 38.5002C56.6144 38.9077 57.9795 43.0516 55.5164 45.3787L50.1426 50.4558C49.1466 51.3968 48.7016 52.7821 48.9632 54.127L50.372 61.3706C51.0255 64.7306 47.4312 67.3058 44.4598 65.6066L38.3728 62.1256C37.1425 61.422 35.6317 61.422 34.4014 62.1256L28.3144 65.6066C25.343 67.3058 21.7488 64.7306 22.4023 61.3706L23.8111 54.127C24.0726 52.7821 23.6276 51.3968 22.6316 50.4558L17.2578 45.3787C14.7947 43.0516 16.1599 38.9077 19.5238 38.5002L26.637 37.6385C28.0259 37.4703 29.226 36.5886 29.8017 35.3135L32.7415 28.8021Z" fill="var(--fill-0, #625D45)"/>
<path d="M33.1974 29.0075C34.4375 26.2616 38.3373 26.2615 39.5773 29.0075L42.5167 35.5193C43.1644 36.9538 44.5148 37.9452 46.0773 38.1345L53.1906 38.9968C56.1338 39.3536 57.3281 42.9792 55.173 45.0154L49.7989 50.0925C48.6786 51.1511 48.1785 52.7094 48.4728 54.2224L49.881 61.4665C50.4524 64.4063 47.308 66.6593 44.7081 65.1726L38.6212 61.6911C37.2372 60.8997 35.5375 60.8998 34.1534 61.6911L28.0665 65.1726C25.4667 66.6593 22.3214 64.4063 22.8927 61.4665L24.3019 54.2224C24.5961 52.7093 24.0952 51.1511 22.9747 50.0925L17.6017 45.0154C15.4465 42.9791 16.6407 39.3534 19.5841 38.9968L26.6974 38.1345C28.2597 37.9451 29.6093 36.9536 30.257 35.5193L33.1974 29.0075Z" stroke="var(--stroke-0, #797355)"/>
</g>
<g id="podiatry">
<mask id="mask0_5487_3438" style="mask-type:alpha" maskUnits="userSpaceOnUse" x="26" y="37" width="21" height="21">
<rect id="Bounding box" x="26.0794" y="37.1364" width="20.6154" height="20.7273" fill="var(--fill-0, #D9D9D9)"/>
</mask>
<g mask="url(#mask0_5487_3438)">
<path id="podiatry_2" d="M40.7679 49.4648L44.6118 45.6L45.8358 46.8307L41.9704 50.6955L40.7679 49.4648ZM26.9384 54.4091V52.1205C26.9384 51.775 27.035 51.4583 27.2283 51.1705C27.4216 50.8826 27.6828 50.6739 28.0121 50.5443C28.3128 50.4292 28.5991 50.2924 28.8711 50.1341C29.1431 49.9758 29.4151 49.7958 29.6871 49.5943L30.9326 50.8466C31.0042 50.9473 31.1008 50.9941 31.2225 50.9869C31.3442 50.9797 31.448 50.933 31.5339 50.8466C31.6055 50.7746 31.6413 50.6775 31.6413 50.5551C31.6413 50.4328 31.6055 50.3212 31.5339 50.2205L30.3528 49.033L30.6857 48.6983C30.793 48.5903 30.904 48.4716 31.0185 48.342L32.1781 49.5295C32.2497 49.6303 32.3464 49.6807 32.468 49.6807C32.5897 49.6807 32.7007 49.6303 32.8009 49.5295C32.8725 49.4576 32.9083 49.3604 32.9083 49.2381C32.9083 49.1157 32.8725 49.0042 32.8009 48.9034L31.6198 47.7375C31.6914 47.5936 31.7665 47.446 31.8453 47.2949C31.924 47.1437 31.992 46.9818 32.0493 46.8091L33.4451 48.2125C33.5167 48.3133 33.6133 48.3636 33.735 48.3636C33.8567 48.3636 33.9677 48.3133 34.0679 48.2125C34.1395 48.1405 34.1753 48.047 34.1753 47.9318C34.1753 47.8167 34.1395 47.7087 34.0679 47.608L32.4144 45.9455L33.2948 43.4841L37.9333 38.8636L43.989 44.9739L35.0987 54.4091H26.9384ZM28.6563 52.6818H34.347L41.5839 45.017L37.9118 41.325L34.7765 44.4557L34.1538 46.2045L34.798 46.8523C35.1273 47.1977 35.2919 47.6116 35.2919 48.0937C35.2919 48.5759 35.1273 48.9826 34.798 49.3136L32.3714 51.7534C32.0278 52.0989 31.6198 52.2716 31.1474 52.2716C30.6749 52.2716 30.2741 52.0989 29.9448 51.7534L29.773 51.5807C29.5869 51.6958 29.4008 51.7966 29.2147 51.883C29.0286 51.9693 28.8425 52.0485 28.6563 52.1205V52.6818Z" fill="var(--fill-0, #FFD91B)"/>
</g>
</g>
</g>
<defs>
<filter id="filter0_d_5487_3438" x="-2.38419e-07" y="12.4481" width="72.7742" height="71.6965" filterUnits="userSpaceOnUse" color-interpolation-filters="sRGB">
<feFlood flood-opacity="0" result="BackgroundImageFix"/>
<feColorMatrix in="SourceAlpha" type="matrix" values="0 0 0 0 0 0 0 0 0 0 0 0 0 0 0 0 0 0 127 0" result="hardAlpha"/>
<feOffset dy="2"/>
<feGaussianBlur stdDeviation="8"/>
<feComposite in2="hardAlpha" operator="out"/>
<feColorMatrix type="matrix" values="0 0 0 0 0 0 0 0 0 0 0 0 0 0 0 0 0 0 0.4 0"/>
<feBlend mode="normal" in2="BackgroundImageFix" result="effect1_dropShadow_5487_3438"/>
<feBlend mode="normal" in="SourceGraphic" in2="effect1_dropShadow_5487_3438" result="shape"/>
</filter>
</defs>
</svg>
