<svg preserveAspectRatio="none" width="100%" height="100%" overflow="visible" style="display: block;" viewBox="0 0 32 32" fill="none" xmlns="http://www.w3.org/2000/svg">
<g id="report">
<mask id="mask0_5658_7147" style="mask-type:alpha" maskUnits="userSpaceOnUse" x="0" y="0" width="32" height="32">
<rect id="Bounding box" width="32" height="32" fill="var(--fill-0, #D9D9D9)"/>
</mask>
<g mask="url(#mask0_5658_7147)">
<path id="report_2" d="M16 22.6667C16.3778 22.6667 16.6944 22.5389 16.95 22.2833C17.2056 22.0278 17.3333 21.7111 17.3333 21.3333C17.3333 20.9556 17.2056 20.6389 16.95 20.3833C16.6944 20.1278 16.3778 20 16 20C15.6222 20 15.3056 20.1278 15.05 20.3833C14.7944 20.6389 14.6667 20.9556 14.6667 21.3333C14.6667 21.7111 14.7944 22.0278 15.05 22.2833C15.3056 22.5389 15.6222 22.6667 16 22.6667ZM14.6667 17.3333H17.3333V9.33333H14.6667V17.3333ZM11 28L4 21V11L11 4H21L28 11V21L21 28H11ZM12.1333 25.3333H19.8667L25.3333 19.8667V12.1333L19.8667 6.66667H12.1333L6.66667 12.1333V19.8667L12.1333 25.3333Z" fill="var(--fill-0, #BF8302)"/>
</g>
</g>
</svg>
