<svg preserveAspectRatio="none" width="100%" height="100%" overflow="visible" style="display: block;" viewBox="0 0 16 16" fill="none" xmlns="http://www.w3.org/2000/svg">
<g id="local_fire_department">
<mask id="mask0_5487_3501" style="mask-type:alpha" maskUnits="userSpaceOnUse" x="0" y="0" width="16" height="16">
<rect id="Bounding box" width="16" height="16" fill="var(--fill-0, #D9D9D9)"/>
</mask>
<g mask="url(#mask0_5487_3501)">
<path id="local_fire_department_2" d="M3.99999 9.33333C3.99999 9.91111 4.11666 10.4583 4.34999 10.975C4.58333 11.4917 4.91666 11.9444 5.34999 12.3333C5.33888 12.2778 5.33333 12.2278 5.33333 12.1833V12.0333C5.33333 11.6778 5.39999 11.3444 5.53333 11.0333C5.66666 10.7222 5.86111 10.4389 6.11666 10.1833L7.99999 8.33333L9.88333 10.1833C10.1389 10.4389 10.3333 10.7222 10.4667 11.0333C10.6 11.3444 10.6667 11.6778 10.6667 12.0333V12.1833C10.6667 12.2278 10.6611 12.2778 10.65 12.3333C11.0833 11.9444 11.4167 11.4917 11.65 10.975C11.8833 10.4583 12 9.91111 12 9.33333C12 8.77778 11.8972 8.25278 11.6917 7.75833C11.4861 7.26389 11.1889 6.82222 10.8 6.43333C10.5778 6.57778 10.3444 6.68611 10.1 6.75833C9.85555 6.83056 9.60555 6.86667 9.34999 6.86667C8.66111 6.86667 8.06388 6.63889 7.55833 6.18333C7.05277 5.72778 6.76111 5.16667 6.68333 4.5C6.24999 4.86667 5.86666 5.24722 5.53333 5.64167C5.19999 6.03611 4.91944 6.43611 4.69166 6.84167C4.46388 7.24722 4.29166 7.66111 4.17499 8.08333C4.05833 8.50556 3.99999 8.92222 3.99999 9.33333ZM7.99999 10.2L7.04999 11.1333C6.92777 11.2556 6.83333 11.3944 6.76666 11.55C6.69999 11.7056 6.66666 11.8667 6.66666 12.0333C6.66666 12.3889 6.79722 12.6944 7.05833 12.95C7.31944 13.2056 7.63333 13.3333 7.99999 13.3333C8.36666 13.3333 8.68055 13.2056 8.94166 12.95C9.20277 12.6944 9.33333 12.3889 9.33333 12.0333C9.33333 11.8556 9.29999 11.6917 9.23333 11.5417C9.16666 11.3917 9.07222 11.2556 8.94999 11.1333L7.99999 10.2ZM7.99999 2V4.2C7.99999 4.57778 8.13055 4.89444 8.39166 5.15C8.65277 5.40556 8.97222 5.53333 9.34999 5.53333C9.54999 5.53333 9.7361 5.49167 9.90833 5.40833C10.0805 5.325 10.2333 5.2 10.3667 5.03333L10.6667 4.66667C11.4889 5.13333 12.1389 5.78333 12.6167 6.61667C13.0944 7.45 13.3333 8.35556 13.3333 9.33333C13.3333 10.8222 12.8167 12.0833 11.7833 13.1167C10.75 14.15 9.48888 14.6667 7.99999 14.6667C6.5111 14.6667 5.24999 14.15 4.21666 13.1167C3.18333 12.0833 2.66666 10.8222 2.66666 9.33333C2.66666 7.9 3.14722 6.53889 4.10833 5.25C5.06944 3.96111 6.36666 2.87778 7.99999 2Z" fill="var(--fill-0, #4F378A)"/>
</g>
</g>
</svg>
