<svg preserveAspectRatio="none" width="100%" height="100%" overflow="visible" style="display: block;" viewBox="0 0 20 20" fill="none" xmlns="http://www.w3.org/2000/svg">
<path id="Icon" d="M18.1818 10C18.1818 5.48131 14.5187 1.81818 10 1.81818C5.48131 1.81818 1.81818 5.48131 1.81818 10C1.81818 14.5187 5.48131 18.1818 10 18.1818C14.5187 18.1818 18.1818 14.5187 18.1818 10ZM10.0089 12.7273L10.1021 12.7317C10.5605 12.7783 10.918 13.1657 10.918 13.6364C10.918 14.1071 10.5605 14.4944 10.1021 14.541L10.0089 14.5455H10C9.49792 14.5455 9.09091 14.1384 9.09091 13.6364C9.09091 13.1343 9.49792 12.7273 10 12.7273H10.0089ZM9.09091 10V6.36364C9.09091 5.86156 9.49792 5.45455 10 5.45455C10.5021 5.45455 10.9091 5.86156 10.9091 6.36364V10C10.9091 10.5021 10.5021 10.9091 10 10.9091C9.49792 10.9091 9.09091 10.5021 9.09091 10ZM20 10C20 15.5228 15.5228 20 10 20C4.47715 20 0 15.5228 0 10C0 4.47715 4.47715 0 10 0C15.5228 0 20 4.47715 20 10Z" fill="var(--fill-0, #1E1E1E)"/>
</svg>
