<svg preserveAspectRatio="none" width="100%" height="100%" overflow="visible" style="display: block;" viewBox="0 0 21 47" fill="none" xmlns="http://www.w3.org/2000/svg">
<path id="Track" fill-rule="evenodd" clip-rule="evenodd" d="M20.3004 2.15383C21.3205 4.11336 20.5589 6.5288 18.5994 7.54887L17.0457 8.35766L15.7157 9.20495L14.4647 10.1649L13.302 11.2303L12.2366 12.393L11.2767 13.644L10.4294 14.974L9.70122 16.3728L9.09775 17.8297L8.62355 19.3336L8.28224 20.8732L8.07641 22.4367L8.00762 24.0121L8.07641 25.5875L8.28224 27.151L8.62355 28.6906L9.09775 30.1945L9.70122 31.6514L10.4294 33.0502L11.2767 34.3802L12.2366 35.6312L13.302 36.7939L14.4647 37.8593L15.8543 38.9256C17.6069 40.2704 17.9375 42.7814 16.5927 44.534C15.2478 46.2866 12.7368 46.6172 10.9842 45.2724L9.31746 43.9935L7.63977 42.4561L6.10245 40.7785L4.7172 38.9732L3.49457 37.054L2.44385 35.0356L1.57305 32.9333L0.888784 30.7631L0.396273 28.5415L0.0992565 26.2855L0 24.0121L0.0992565 21.7387L0.396273 19.4827L0.888784 17.2611L1.57305 15.0909L2.44385 12.9886L3.49457 10.9702L4.7172 9.05104L6.10245 7.24575L7.63977 5.56806L9.31746 4.03074L11.1228 2.64549L13.0419 1.42286L14.9054 0.45278C16.8649 -0.567286 19.2804 0.194299 20.3004 2.15383Z" fill="var(--fill-0, #E8DEF8)"/>
</svg>
