<svg preserveAspectRatio="none" width="100%" height="100%" overflow="visible" style="display: block;" viewBox="0 0 22 22" fill="none" xmlns="http://www.w3.org/2000/svg">
<path id="Active indicator" fill-rule="evenodd" clip-rule="evenodd" d="M20.4116 1.86395C21.5916 3.73154 21.0342 6.2021 19.1666 7.38209C18.9019 7.54932 18.7591 7.85556 18.8011 8.1658L18.9161 9.0145C19.6965 14.7754 14.7754 19.6965 9.01448 18.9161L8.1658 18.8011C8.16579 18.8011 8.1658 18.8011 8.1658 18.8011C7.85556 18.7591 7.54931 18.9019 7.38209 19.1666C6.2021 21.0342 3.73154 21.5916 1.86394 20.4116C-0.0036484 19.2316 -0.561056 16.761 0.61894 14.8934C2.4584 11.9821 5.82705 10.4113 9.23965 10.8735L10.0883 10.9885C10.0883 10.9885 10.0883 10.9885 10.0883 10.9885C10.6121 11.0594 11.0594 10.6121 10.9885 10.0884L10.8735 9.23965C10.4113 5.82706 11.9821 2.4584 14.8934 0.61894C16.761 -0.561056 19.2316 -0.00364839 20.4116 1.86395Z" fill="var(--fill-0, #6750A4)"/>
</svg>
