<svg preserveAspectRatio="none" width="100%" height="100%" overflow="visible" style="display: block;" viewBox="0 0 24 24" fill="none" xmlns="http://www.w3.org/2000/svg">
<path id="Track" fill-rule="evenodd" clip-rule="evenodd" d="M9.41598 0.741094C9.6696 1.35339 9.37884 2.05535 8.76655 2.30897L7.94449 2.64948L7.20172 3.03614L6.49546 3.48607L5.83112 3.99584L5.21373 4.56158L4.64799 5.17897L4.13822 5.84332L3.68829 6.54957L3.30162 7.29234L2.98117 8.06599L2.72936 8.86463L2.54811 9.68217L2.43881 10.5124L2.40229 11.349L2.43881 12.1856L2.54811 13.0158L2.72936 13.8334L2.98117 14.632L3.30162 15.4056L3.68829 16.1484L4.13822 16.8547L4.64799 17.519L5.21373 18.1364L5.83112 18.7021L6.49546 19.2119L7.20172 19.6618L7.94449 20.0485L8.71813 20.369L9.51678 20.6208L10.3343 20.802L11.1646 20.9113L12.0011 20.9479L12.8377 20.9113L13.668 20.802L14.4855 20.6208L15.2842 20.369L16.0578 20.0485L16.8006 19.6618L17.5068 19.2119L18.1712 18.7021L18.7886 18.1364L19.3543 17.519L19.8641 16.8547L20.314 16.1484L20.7007 15.4057L21.0211 14.632L21.2729 13.8334L21.4542 13.0158L21.5635 12.1856L21.6 11.349L21.5635 10.5124L21.4473 9.63022C21.3608 8.97315 21.8234 8.37036 22.4804 8.28386C23.1375 8.19736 23.7403 8.65989 23.8268 9.31696L23.9566 10.303L24.0023 11.349L23.9566 12.395L23.82 13.433L23.5934 14.4551L23.2785 15.4536L22.8779 16.4209L22.3944 17.3496L21.8319 18.2326L21.1946 19.0632L20.4872 19.8351L19.7153 20.5424L18.8847 21.1798L18.0017 21.7423L17.073 22.2257L16.1058 22.6264L15.1073 22.9412L14.0851 23.1678L13.0471 23.3045L12.0011 23.3501L10.9552 23.3045L9.91717 23.1678L8.89502 22.9412L7.89651 22.6264L6.92924 22.2257L6.00057 21.7423L5.11757 21.1798L4.28696 20.5424L3.51505 19.8351L2.80773 19.0632L2.17038 18.2326L1.60785 17.3496L1.12441 16.4209L0.723758 15.4536L0.408929 14.4551L0.182324 13.433L0.0456676 12.395L0 11.349L0.0456676 10.303L0.182324 9.26502L0.408929 8.24287L0.723758 7.24436L1.12441 6.27709L1.60785 5.34842L2.17038 4.46542L2.80773 3.63481L3.51505 2.8629L4.28696 2.15558L5.11757 1.51823L6.00057 0.955699L6.92924 0.472265L7.8481 0.0916588C8.4604 -0.161962 9.16236 0.1288 9.41598 0.741094Z" fill="var(--fill-0, #E8DEF8)"/>
</svg>
