<svg preserveAspectRatio="none" width="100%" height="100%" overflow="visible" style="display: block;" viewBox="0 0 18 18" fill="none" xmlns="http://www.w3.org/2000/svg">
<g id="vital_signs">
<mask id="mask0_6587_4607" style="mask-type:alpha" maskUnits="userSpaceOnUse" x="0" y="0" width="18" height="18">
<rect id="Bounding box" width="18" height="18" fill="var(--fill-0, #D9D9D9)"/>
</mask>
<g mask="url(#mask0_6587_4607)">
<path id="vital_signs_2" d="M6.75 15C6.5125 15 6.3 14.9313 6.1125 14.7938C5.925 14.6563 5.7875 14.4813 5.7 14.2688L3.975 9.75H0.75V8.25H5.025L6.75 12.825L10.2 3.73125C10.2875 3.51875 10.425 3.34375 10.6125 3.20625C10.8 3.06875 11.0125 3 11.25 3C11.4875 3 11.7 3.06875 11.8875 3.20625C12.075 3.34375 12.2125 3.51875 12.3 3.73125L14.025 8.25H17.25V9.75H12.975L11.25 5.175L7.8 14.2688C7.7125 14.4813 7.575 14.6563 7.3875 14.7938C7.2 14.9313 6.9875 15 6.75 15Z" fill="var(--fill-0, #6750A4)"/>
</g>
</g>
</svg>
