<svg preserveAspectRatio="none" width="100%" height="100%" overflow="visible" style="display: block;" viewBox="0 0 46 42" fill="none" xmlns="http://www.w3.org/2000/svg">
<path id="Active indicator" fill-rule="evenodd" clip-rule="evenodd" d="M25.0549 8.49964C24.8545 8.01061 24.2434 7.84687 23.8253 8.17017L23.1478 8.69407C20.4235 10.8007 16.7208 11.1246 13.6721 9.52309L13.6721 9.52308L12.9139 9.12479C12.9139 9.12478 12.9139 9.12478 12.9139 9.12478C12.446 8.879 11.8726 9.14638 11.7602 9.66278L11.5779 10.4996C10.8451 13.8645 8.21689 16.4928 4.85199 17.2255C2.69345 17.6956 0.562526 16.3269 0.0924473 14.1683C-0.377632 12.0098 0.991142 9.87884 3.14969 9.40876C3.45559 9.34214 3.69452 9.10321 3.76114 8.79731L3.94338 7.96047L3.94338 7.96047C5.18043 2.28008 11.4878 -0.661089 16.6344 2.04256L16.6344 2.04256L17.3926 2.44086C17.3926 2.44086 17.3926 2.44086 17.3926 2.44086C17.6697 2.58646 18.0064 2.557 18.254 2.3655L18.9315 1.84159C23.5304 -1.71468 30.2527 0.0865465 32.4574 5.46583L28.7561 6.98273L32.4574 5.46583L32.7821 6.25828L29.1179 7.76005L32.7821 6.25829C32.9009 6.54799 33.1777 6.7418 33.4905 6.75428L34.3462 6.78844L34.1867 10.7853L34.3463 6.78844C40.1552 7.02031 44.1469 12.7211 42.378 18.259L42.1174 19.0749C42.0222 19.3731 42.1096 19.6995 42.3412 19.9101L42.9748 20.4863C47.2757 24.3979 46.6691 31.3308 41.7544 34.436L39.6178 31.0545L41.7544 34.4361L41.0303 34.8935C40.7657 35.0607 40.6229 35.367 40.6649 35.6772L40.7799 36.5259C41.0764 38.715 39.5422 40.7301 37.353 41.0266C35.1639 41.3232 33.1488 39.7889 32.8523 37.5998L32.7373 36.7511C32.2751 33.3385 33.8459 29.9698 36.7572 28.1303L38.8938 31.5119L36.7572 28.1303L37.4813 27.6729C37.9281 27.3906 37.9832 26.7603 37.5922 26.4047L36.9586 25.8285C34.4109 23.5114 33.4489 19.9212 34.4967 16.6407L34.7573 15.8249C34.9181 15.3214 34.5553 14.8032 34.0272 14.7821L33.1714 14.7479C29.7304 14.6106 26.6857 12.4786 25.3797 9.29212L29.0809 7.7752L25.3797 9.29212L25.0549 8.49965L28.7417 6.98865L25.0549 8.49964Z" fill="var(--fill-0, #6750A4)"/>
</svg>
