<svg preserveAspectRatio="none" width="100%" height="100%" overflow="visible" style="display: block;" viewBox="0 0 44 42" fill="none" xmlns="http://www.w3.org/2000/svg">
<path id="Track" fill-rule="evenodd" clip-rule="evenodd" d="M16.3774 1.8513C17.5643 3.71447 17.0162 6.1871 15.153 7.37407L13.9759 8.12396L13.0072 8.86726L12.107 9.69216L11.2821 10.5924L10.5388 11.5611L9.88275 12.5909L9.31896 13.6739L8.8517 14.802L8.48453 15.9665L8.22025 17.1585L8.06088 18.3691L8.00762 19.589L8.06088 20.8088L8.22025 22.0194L8.48453 23.2114L8.8517 24.3759L9.31896 25.504L9.88276 26.5871L10.5388 27.6168L11.2821 28.5855L12.107 29.4858L13.0072 30.3107L13.9759 31.054L15.0057 31.71L16.0888 32.2738L17.2168 32.7411L18.3813 33.1082L19.5734 33.3725L20.784 33.5319L22.0038 33.5851L23.2237 33.5319L24.4342 33.3725L25.6263 33.1082L26.7908 32.7411L27.9189 32.2738L29.0019 31.71L30.0317 31.054L31.0004 30.3107L31.9006 29.4858L32.7255 28.5855L33.4688 27.6168L34.1249 26.5871L34.6887 25.504L35.1559 24.3759L35.5231 23.2114L35.7874 22.0194L35.9467 20.8088L36 19.589L35.9467 18.3691L35.7874 17.1585L35.4853 15.796C35.0071 13.6392 36.3679 11.5032 38.5247 11.025C40.6815 10.5469 42.8175 11.9077 43.2957 14.0645L43.6733 15.768L43.9239 17.6712L44.0076 19.589L43.9239 21.5067L43.6733 23.4099L43.2579 25.284L42.6806 27.1147L41.946 28.8882L41.0597 30.5909L40.0283 32.2098L38.8597 33.7327L37.5629 35.148L36.1476 36.4449L34.6247 37.6134L33.0057 38.6448L31.303 39.5312L29.5296 40.2658L27.6988 40.843L25.8247 41.2585L23.9216 41.509L22.0038 41.5928L20.0861 41.509L18.1829 41.2585L16.3088 40.843L14.4781 40.2658L12.7046 39.5312L11.0019 38.6448L9.38294 37.6134L7.86003 36.4449L6.44477 35.148L5.14791 33.7327L3.97934 32.2098L2.94795 30.5909L2.06159 28.8882L1.32699 27.1147L0.749761 25.284L0.334287 23.4099L0.0837305 21.5067L0 19.589L0.0837305 17.6712L0.334287 15.768L0.749761 13.894L1.32699 12.0632L2.06159 10.2897L2.94795 8.58706L3.97934 6.96809L5.14791 5.44518L6.44477 4.02992L7.86003 2.73306L9.38294 1.56449L10.8546 0.626937C12.7178 -0.560033 15.1904 -0.0118645 16.3774 1.8513Z" fill="var(--fill-0, #E8DEF8)"/>
</svg>
