<svg preserveAspectRatio="none" width="100%" height="100%" overflow="visible" style="display: block;" viewBox="0 0 102 198" fill="none" xmlns="http://www.w3.org/2000/svg">
<path id="Active indicator" fill-rule="evenodd" clip-rule="evenodd" d="M0.0858201 8.60891C0.79949 3.18807 5.77249 -0.627849 11.1933 0.0858201L19.3284 1.15682L27.7611 3.02631L35.9988 5.62365L43.9787 8.92906L51.6403 12.9174L58.925 17.5583L65.7776 22.8164L72.1458 28.6518L77.9812 35.02L83.2393 41.8726L87.8802 49.1574L91.8685 56.8189L95.174 64.7988L97.7713 73.0365L99.6408 81.4693L100.768 90.0328L101.145 98.6621L100.768 107.291L99.6408 115.855L97.7713 124.288L95.174 132.525L91.8685 140.505L87.8802 148.167L83.2393 155.452L77.9812 162.304L72.1458 168.672L65.7776 174.508L58.925 179.766L51.6403 184.407L43.9787 188.395L35.9988 191.7L27.7611 194.298L19.3283 196.167L11.1933 197.238C5.77248 197.952 0.799482 194.136 0.085819 188.715C-0.627844 183.294 3.18808 178.321 8.60892 177.608L15.887 176.65L22.6316 175.154L29.2202 173.077L35.603 170.433L41.7308 167.243L47.5574 163.531L53.0383 159.326L58.1317 154.658L62.799 149.565L67.0047 144.084L70.7166 138.257L73.9066 132.129L76.5503 125.747L78.6278 119.158L80.123 112.413L81.0248 105.564L81.3261 98.6621L81.0248 91.7602L80.123 84.9107L78.6278 78.1661L76.5503 71.5773L73.9066 65.1947L70.7166 59.0668L67.0046 53.2402L62.799 47.7594L58.1317 42.6659L53.0382 37.9986L47.5574 33.793L41.7308 30.081L35.6029 26.891L29.2203 24.2473L22.6316 22.1699L15.8868 20.6746L8.60891 19.7164C3.18807 19.0028 -0.627849 14.0298 0.0858201 8.60891Z" fill="var(--fill-0, #6750A4)"/>
</svg>
