<svg preserveAspectRatio="none" width="100%" height="100%" overflow="visible" style="display: block;" viewBox="0 0 20 20" fill="none" xmlns="http://www.w3.org/2000/svg">
<path id="Icon" d="M17.9999 8.96898C17.9999 8.51235 17.9948 8.33097 17.9804 8.22761L17.9628 8.14283C17.9382 8.05821 17.9015 7.9775 17.8544 7.90262L17.8036 7.82914C17.7724 7.78855 17.7334 7.74843 17.6405 7.67182L17.1503 7.29408L10.3682 2.2053C10.1815 2.06522 10.082 1.99183 10.0068 1.94342C10.0044 1.94185 10.0022 1.94012 10 1.93871C9.99778 1.94012 9.99561 1.94185 9.99317 1.94342L9.63185 2.2053L2.8497 7.29408C2.47648 7.5741 2.33083 7.68968 2.25498 7.76414L2.19639 7.82914C2.1421 7.89994 2.09791 7.97789 2.06553 8.05994L2.03721 8.14283C2.00889 8.24043 2.00011 8.36061 2.0001 8.96898V15.9484L2.00303 16.6483C2.00612 16.8419 2.01293 17.0005 2.02452 17.1372C2.04672 17.399 2.0843 17.4965 2.10948 17.5442L2.19151 17.6732C2.28376 17.7956 2.40495 17.8959 2.54599 17.9652L2.59482 17.985C2.65673 18.0065 2.76417 18.0311 2.96786 18.0472C3.2512 18.0695 3.62373 18.0707 4.20027 18.0707H15.7997C16.3763 18.0707 16.7488 18.0695 17.0321 18.0472C17.3037 18.0258 17.4046 17.9895 17.454 17.9652L17.5878 17.8861C17.7147 17.7972 17.8186 17.6802 17.8905 17.5442L17.912 17.4971C17.9343 17.4374 17.9588 17.3335 17.9755 17.1372C17.9986 16.8639 17.9999 16.5045 17.9999 15.9484V8.96898ZM14 14.2122L14.1025 14.217C14.6066 14.2665 14.9999 14.6775 14.9999 15.1769C14.9998 15.6761 14.6065 16.0863 14.1025 16.1358L14 16.1415H6.00005C5.44786 16.1415 5.00021 15.7095 5.00007 15.1769C5.00007 14.6441 5.44778 14.2122 6.00005 14.2122H14ZM19.9999 15.9484C19.9999 16.4725 20.0009 16.9236 19.9696 17.2936C19.9414 17.6271 19.8832 17.9596 19.7401 18.2818L19.6727 18.4193C19.4211 18.8957 19.0382 19.2943 18.5683 19.5723L18.3622 19.6844C17.9839 19.8703 17.5905 19.9387 17.1952 19.9699C16.8116 20.0001 16.3433 20 15.7997 20H4.20027C3.65673 20 3.18845 20.0001 2.80478 19.9699C2.45884 19.9426 2.11454 19.8867 1.78038 19.7485L1.6378 19.6844C1.14394 19.4416 0.730705 19.0723 0.442505 18.619L0.327272 18.4193C0.134571 18.0544 0.0626941 17.6749 0.0304003 17.2936C0.0147611 17.1088 0.00775684 16.9037 0.00403341 16.6794L0.000127207 15.9484V8.96898C0.000123247 8.46972 -0.00824491 8.03535 0.111454 7.62284L0.196414 7.3732C0.29351 7.12727 0.425304 6.89497 0.588011 6.68271L0.691525 6.55648C0.942949 6.27196 1.26388 6.03986 1.6212 5.77178L8.62795 0.514379C8.86696 0.338535 9.15116 0.152167 9.47755 0.0669208L9.60645 0.0377182C9.86622 -0.0125727 10.1338 -0.0125727 10.3936 0.0377182L10.5225 0.0669208L10.6826 0.11779C11.0468 0.252952 11.3532 0.500327 11.5967 0.683L18.3788 5.77178L18.6747 5.99503C18.9609 6.21366 19.2139 6.42433 19.412 6.68271L19.5643 6.90125C19.7058 7.12603 19.8148 7.36883 19.8886 7.62284L19.9276 7.77921C20.0061 8.14541 19.9999 8.53221 19.9999 8.96898V15.9484Z" fill="var(--fill-0, #1E1E1E)"/>
</svg>
