<svg preserveAspectRatio="none" width="100%" height="100%" overflow="visible" style="display: block;" viewBox="0 0 30 45" fill="none" xmlns="http://www.w3.org/2000/svg">
<path id="Active indicator" fill-rule="evenodd" clip-rule="evenodd" d="M8.44123 0.40886C9.32005 -0.260279 10.5749 -0.0902975 11.2441 0.788524C11.9079 1.66032 13.0192 2.06481 14.0881 1.82366L14.9235 1.63516C19.3056 0.646465 23.4252 4.1032 23.2125 8.59043L23.1719 9.44592C23.12 10.5404 23.7114 11.5646 24.6852 12.067L25.4463 12.4596C29.4387 14.519 30.3726 19.815 27.3253 23.1157L26.7443 23.7449L25.4323 22.5336L26.7443 23.7449C26.001 24.55 25.7957 25.7147 26.2188 26.7255L26.5495 27.5155C28.2841 31.6594 25.5952 36.3166 21.1392 36.8863L20.2897 36.9949C19.2028 37.1339 18.2968 37.8941 17.9713 38.9403L17.7168 39.7581C16.3819 44.0475 11.3285 45.8868 7.54885 43.4589L8.62974 41.7762L7.54884 43.4589L6.82825 42.9961C5.90632 42.4039 4.72367 42.4039 3.80174 42.9961L2.91293 41.6123L3.80174 42.9961L3.08114 43.4589C2.15178 44.0559 0.91445 43.7864 0.317488 42.8571C-0.279473 41.9277 -0.0100103 40.6904 0.91935 40.0934L1.63994 39.6306C3.87892 38.1924 6.75107 38.1924 8.99005 39.6306L9.71064 40.0934C11.267 41.0931 13.3478 40.3358 13.8974 38.5695L14.1519 37.7518C14.9426 35.2109 17.1428 33.3647 19.7824 33.0272L20.632 32.9186C22.4668 32.684 23.574 30.7663 22.8597 29.06L22.529 28.27C21.5015 25.8153 22.0002 22.9868 23.8053 21.0316L24.3863 20.4023L25.6983 21.6136L24.3863 20.4023C25.6411 19.0432 25.2565 16.8625 23.6126 16.0145L22.8515 15.6219C20.4865 14.402 19.0504 11.9146 19.1764 9.2565L21.1742 9.35121L19.1764 9.2565L19.217 8.40102C19.3046 6.55333 17.6083 5.12997 15.8039 5.53708L14.9684 5.72558C12.3726 6.31125 9.67363 5.32891 8.06157 3.21169C7.39243 2.33287 7.56241 1.078 8.44123 0.40886Z" fill="var(--fill-0, #6750A4)"/>
</svg>
