<svg preserveAspectRatio="none" width="100%" height="100%" overflow="visible" style="display: block;" viewBox="0 0 19 40" fill="none" xmlns="http://www.w3.org/2000/svg">
<path id="Track" fill-rule="evenodd" clip-rule="evenodd" d="M16.3774 1.8513C17.5643 3.71447 17.0162 6.1871 15.153 7.37407L13.9759 8.12396L13.0072 8.86726L12.107 9.69216L11.2821 10.5924L10.5388 11.5611L9.88275 12.5909L9.31896 13.6739L8.8517 14.802L8.48453 15.9665L8.22025 17.1585L8.06088 18.3691L8.00762 19.589L8.06088 20.8088L8.22025 22.0194L8.48453 23.2114L8.8517 24.3759L9.31896 25.504L9.88276 26.5871L10.5388 27.6168L11.2821 28.5855L12.107 29.4858L13.0072 30.3107L13.9759 31.054L15.0057 31.71L16.2437 32.3545C18.2032 33.3745 18.9648 35.79 17.9447 37.7495C16.9247 39.709 14.5092 40.4706 12.5497 39.4505L11.0019 38.6448L9.38294 37.6134L7.86003 36.4449L6.44477 35.148L5.14791 33.7327L3.97934 32.2098L2.94795 30.5909L2.06159 28.8882L1.32699 27.1147L0.749761 25.284L0.334287 23.4099L0.0837305 21.5067L0 19.589L0.0837305 17.6712L0.334287 15.768L0.749761 13.894L1.32699 12.0632L2.06159 10.2897L2.94795 8.58706L3.97934 6.96809L5.14791 5.44518L6.44477 4.02992L7.86003 2.73306L9.38294 1.56449L10.8546 0.626937C12.7178 -0.560033 15.1904 -0.0118645 16.3774 1.8513Z" fill="var(--fill-0, #E8DEF8)"/>
</svg>
