<svg preserveAspectRatio="none" width="100%" height="100%" overflow="visible" style="display: block;" viewBox="0 0 49 48" fill="none" xmlns="http://www.w3.org/2000/svg">
<path id="Track" fill-rule="evenodd" clip-rule="evenodd" d="M22.2003 1.56755C22.4394 2.64594 21.759 3.71395 20.6806 3.95302L18.8853 4.35103L17.2148 4.87775L15.5965 5.54805L14.0429 6.35684L12.5656 7.29797L11.176 8.36427L9.88455 9.54762L8.70119 10.839L7.63489 12.2287L6.69377 13.7059L5.88497 15.2596L5.21467 16.8779L4.68795 18.5484L4.30884 20.2585L4.08021 21.9951L4.00381 23.745L4.08021 25.4949L4.30884 27.2315L4.68795 28.9416L5.21467 30.6121L5.88497 32.2304L6.69377 33.784L7.6349 35.2613L8.70118 36.6509L9.88456 37.9424L11.1759 39.1257L12.5656 40.192L14.0428 41.1331L15.5965 41.9419L17.2148 42.6122L18.8853 43.1389L20.5954 43.518L22.332 43.7467L24.0819 43.8231L25.8318 43.7467L27.5684 43.518L29.2785 43.1389L30.949 42.6122L32.5673 41.9419L34.121 41.1331L35.5982 40.192L36.9878 39.1257L38.2793 37.9423L39.4626 36.6509L40.5289 35.2613L41.47 33.7841L42.2788 32.2303L42.9491 30.6121L43.4759 28.9416L43.855 27.2315L44.0836 25.4949L44.1638 23.6577C44.212 22.5542 45.1456 21.6987 46.2491 21.7469C47.3527 21.7951 48.2082 22.7287 48.16 23.8322L48.0722 25.8439L47.798 27.9268L47.3432 29.9778L46.7115 31.9815L45.9075 33.9224L44.9375 35.7859L43.8086 37.5578L42.5297 39.2245L41.1104 40.7735L39.5615 42.1928L37.8947 43.4717L36.1229 44.6005L34.2594 45.5706L32.3184 46.3746L30.3148 47.0063L28.2637 47.461L26.1808 47.7352L24.0819 47.8269L21.983 47.7352L19.9001 47.461L17.849 47.0063L15.8454 46.3746L13.9045 45.5706L12.041 44.6005L10.2691 43.4717L8.60235 42.1928L7.05343 40.7735L5.6341 39.2245L4.35516 37.5578L3.22636 35.7859L2.25629 33.9224L1.45232 31.9815L0.820572 29.9778L0.365859 27.9268L0.0916395 25.8439L0 23.745L0.0916395 21.6461L0.365859 19.5632L0.820572 17.5121L1.45232 15.5085L2.25629 13.5675L3.22636 11.704L4.35516 9.93217L5.6341 8.26543L7.05343 6.7165L8.60236 5.29717L10.2691 4.01824L12.041 2.88944L13.9045 1.91936L15.8454 1.11539L17.849 0.483648L19.8149 0.0478354C20.8933 -0.191237 21.9613 0.489162 22.2003 1.56755Z" fill="var(--fill-0, #E8DEF8)"/>
</svg>
