<svg preserveAspectRatio="none" width="100%" height="100%" overflow="visible" style="display: block;" viewBox="0 0 18 18" fill="none" xmlns="http://www.w3.org/2000/svg">
<g id="diversity_4">
<mask id="mask0_6587_4593" style="mask-type:alpha" maskUnits="userSpaceOnUse" x="0" y="0" width="18" height="18">
<rect id="Bounding box" width="18" height="18" fill="var(--fill-0, #D9D9D9)"/>
</mask>
<g mask="url(#mask0_6587_4593)">
<path id="diversity_4_2" d="M14.25 6C14.4625 6 14.6406 5.92813 14.7844 5.78438C14.9281 5.64063 15 5.4625 15 5.25C15 5.0375 14.9281 4.85937 14.7844 4.71562C14.6406 4.57187 14.4625 4.5 14.25 4.5C14.0375 4.5 13.8594 4.57187 13.7156 4.71562C13.5719 4.85937 13.5 5.0375 13.5 5.25C13.5 5.4625 13.5719 5.64063 13.7156 5.78438C13.8594 5.92813 14.0375 6 14.25 6ZM14.25 7.5C13.6125 7.5 13.0781 7.28438 12.6469 6.85313C12.2156 6.42188 12 5.8875 12 5.25C12 4.625 12.2156 4.09375 12.6469 3.65625C13.0781 3.21875 13.6125 3 14.25 3C14.875 3 15.4062 3.21875 15.8438 3.65625C16.2813 4.09375 16.5 4.625 16.5 5.25C16.5 5.8875 16.2813 6.42188 15.8438 6.85313C15.4062 7.28438 14.875 7.5 14.25 7.5ZM9 5.25C9.3125 5.25 9.57812 5.14375 9.79688 4.93125C10.0156 4.71875 10.125 4.45 10.125 4.125C10.125 3.8125 10.0156 3.54688 9.79688 3.32812C9.57812 3.10937 9.3125 3 9 3C8.675 3 8.40625 3.10937 8.19375 3.32812C7.98125 3.54688 7.875 3.8125 7.875 4.125C7.875 4.45 7.98125 4.71875 8.19375 4.93125C8.40625 5.14375 8.675 5.25 9 5.25ZM9 6.75C8.2625 6.75 7.64063 6.49688 7.13438 5.99063C6.62813 5.48438 6.375 4.8625 6.375 4.125C6.375 3.4 6.62813 2.78125 7.13438 2.26875C7.64063 1.75625 8.2625 1.5 9 1.5C9.725 1.5 10.3438 1.75625 10.8563 2.26875C11.3688 2.78125 11.625 3.4 11.625 4.125C11.625 4.8625 11.3688 5.48438 10.8563 5.99063C10.3438 6.49688 9.725 6.75 9 6.75ZM6 10.0312C6 10.4062 6.2 10.8437 6.6 11.3438C7 11.8438 7.8 12.6375 9 13.725C10.175 12.6625 10.9688 11.8813 11.3813 11.3813C11.7938 10.8813 12 10.4313 12 10.0312C12 9.74375 11.9062 9.5 11.7188 9.3C11.5312 9.1 11.3 9 11.025 9C10.85 9 10.6844 9.0375 10.5281 9.1125C10.3719 9.1875 10.2438 9.29375 10.1438 9.43125L9.24375 10.5H8.7375L7.8375 9.43125C7.7375 9.29375 7.60937 9.1875 7.45312 9.1125C7.29688 9.0375 7.1375 9 6.975 9C6.6875 9 6.45313 9.1 6.27188 9.3C6.09063 9.5 6 9.74375 6 10.0312ZM4.5 10.0312C4.5 9.36875 4.725 8.78125 5.175 8.26875C5.625 7.75625 6.225 7.5 6.975 7.5C7.3625 7.5 7.73438 7.5875 8.09063 7.7625C8.44688 7.9375 8.75 8.175 9 8.475C9.25 8.175 9.55 7.9375 9.9 7.7625C10.25 7.5875 10.625 7.5 11.025 7.5C11.775 7.5 12.375 7.75938 12.825 8.27813C13.275 8.79688 13.5 9.38125 13.5 10.0312C13.5 10.6937 13.2594 11.3469 12.7781 11.9906C12.2969 12.6344 11.3125 13.6375 9.825 15L9 15.75L8.175 15C6.6625 13.625 5.67188 12.6188 5.20312 11.9813C4.73438 11.3438 4.5 10.6937 4.5 10.0312ZM3.75 6C3.9625 6 4.14063 5.92813 4.28438 5.78438C4.42813 5.64063 4.5 5.4625 4.5 5.25C4.5 5.0375 4.42813 4.85937 4.28438 4.71562C4.14063 4.57187 3.9625 4.5 3.75 4.5C3.5375 4.5 3.35938 4.57187 3.21563 4.71562C3.07188 4.85937 3 5.0375 3 5.25C3 5.4625 3.07188 5.64063 3.21563 5.78438C3.35938 5.92813 3.5375 6 3.75 6ZM9.05625 16.5V15H15V9.75H12.7875V8.25H15C15.4125 8.25 15.7656 8.39688 16.0594 8.69063C16.3531 8.98438 16.5 9.3375 16.5 9.75V16.5H9.05625ZM3 15H9.05625V16.5H1.5V9.75C1.5 9.3375 1.64375 8.98438 1.93125 8.69063C2.21875 8.39688 2.575 8.25 3 8.25H5.2125V9.75H3V15ZM3.75 7.5C3.1125 7.5 2.57812 7.28438 2.14688 6.85313C1.71563 6.42188 1.5 5.8875 1.5 5.25C1.5 4.625 1.71563 4.09375 2.14688 3.65625C2.57812 3.21875 3.1125 3 3.75 3C4.375 3 4.90625 3.21875 5.34375 3.65625C5.78125 4.09375 6 4.625 6 5.25C6 5.8875 5.78125 6.42188 5.34375 6.85313C4.90625 7.28438 4.375 7.5 3.75 7.5Z" fill="var(--fill-0, #6750A4)"/>
</g>
</g>
</svg>
