<svg preserveAspectRatio="none" width="100%" height="100%" overflow="visible" style="display: block;" viewBox="0 0 11 7" fill="none" xmlns="http://www.w3.org/2000/svg">
<path id="Active indicator" fill-rule="evenodd" clip-rule="evenodd" d="M0.0104024 1.0435C0.0969078 0.386432 0.699696 -0.0761029 1.35677 0.0104024L2.34283 0.14022L3.36498 0.366825L4.36349 0.681654L5.33076 1.08231L6.25943 1.56574L7.14243 2.12828L7.97304 2.76563L8.74494 3.47295L9.45226 4.24485L10.0577 5.0339C10.4612 5.55969 10.362 6.31299 9.83621 6.71644C9.31042 7.11989 8.55712 7.02072 8.15367 6.49493L7.612 5.78901L7.04627 5.17162L6.42888 4.60589L5.76453 4.09612L5.05828 3.64618L4.31551 3.25952L3.54186 2.93906L2.74322 2.68726L1.92568 2.50601L1.0435 2.38987C0.386432 2.30336 -0.0761029 1.70058 0.0104024 1.0435Z" fill="var(--fill-0, #6750A4)"/>
</svg>
