<svg preserveAspectRatio="none" width="100%" height="100%" overflow="visible" style="display: block;" viewBox="0 0 53 51" fill="none" xmlns="http://www.w3.org/2000/svg">
<path id="Track" fill-rule="evenodd" clip-rule="evenodd" d="M20.3004 2.15383C21.3205 4.11336 20.5589 6.5288 18.5994 7.54887L17.0457 8.35766L15.7157 9.20495L14.4647 10.1649L13.302 11.2303L12.2366 12.393L11.2767 13.644L10.4294 14.974L9.70122 16.3728L9.09775 17.8297L8.62355 19.3336L8.28224 20.8732L8.07641 22.4367L8.00762 24.0121L8.07641 25.5875L8.28224 27.151L8.62355 28.6906L9.09775 30.1945L9.70122 31.6514L10.4294 33.0502L11.2767 34.3802L12.2366 35.6312L13.302 36.7939L14.4647 37.8593L15.7157 38.8192L17.0457 39.6665L18.4445 40.3947L19.9014 40.9982L21.4053 41.4724L22.9449 41.8137L24.5084 42.0195L26.0838 42.0883L27.6593 42.0195L29.2227 41.8137L30.7623 41.4724L32.2662 40.9982L33.7232 40.3947L35.1219 39.6665L36.4519 38.8192L37.703 37.8593L38.8656 36.7939L39.931 35.6313L40.891 34.3801L41.7383 33.0502L42.4664 31.6514L43.0699 30.1945L43.5441 28.6906L43.8854 27.151L44.114 25.4144C44.4024 23.2241 46.4117 21.6824 48.6019 21.9707C50.7921 22.2591 52.3339 24.2684 52.0456 26.4586L51.7713 28.5415L51.2788 30.7631L50.5946 32.9333L49.7238 35.0356L48.6731 37.054L47.4504 38.9732L46.0652 40.7785L44.5279 42.4561L42.8502 43.9935L41.0449 45.3787L39.1257 46.6013L37.1073 47.6521L35.005 48.5229L32.8348 49.2071L30.6132 49.6996L28.3572 49.9967L26.0838 50.0959L23.8105 49.9967L21.5544 49.6996L19.3328 49.2071L17.1626 48.5229L15.0603 47.6521L13.0419 46.6013L11.1228 45.3787L9.31746 43.9935L7.63977 42.4561L6.10245 40.7785L4.7172 38.9732L3.49457 37.054L2.44385 35.0356L1.57305 32.9333L0.888784 30.7631L0.396273 28.5415L0.0992565 26.2855L0 24.0121L0.0992565 21.7387L0.396273 19.4827L0.888784 17.2611L1.57305 15.0909L2.44385 12.9886L3.49457 10.9702L4.7172 9.05104L6.10245 7.24575L7.63977 5.56806L9.31746 4.03074L11.1228 2.64549L13.0419 1.42286L14.9054 0.45278C16.8649 -0.567286 19.2804 0.194299 20.3004 2.15383Z" fill="var(--fill-0, #E8DEF8)"/>
</svg>
