<svg preserveAspectRatio="none" width="100%" height="100%" overflow="visible" style="display: block;" viewBox="0 0 19 16" fill="none" xmlns="http://www.w3.org/2000/svg">
<path id="Active indicator" fill-rule="evenodd" clip-rule="evenodd" d="M0.788524 0.40886C1.66735 -0.260279 2.92222 -0.0902975 3.59135 0.788524C4.25515 1.66032 5.36648 2.06481 6.43535 1.82366L7.2708 1.63516L7.709 3.57736L7.2708 1.63516C11.6529 0.646465 15.7725 4.1032 15.5598 8.59043L13.562 8.49572L15.5598 8.59043L15.5192 9.44592C15.4673 10.5404 16.0587 11.5646 17.0325 12.067C18.0141 12.5733 18.3994 13.7796 17.8931 14.7613C17.3867 15.7429 16.1804 16.1282 15.1988 15.6219C12.8338 14.402 11.3977 11.9146 11.5237 9.2565L11.5643 8.40101C11.6519 6.55333 9.95556 5.12997 8.15115 5.53708L7.3157 5.72557L6.96072 4.15221L7.3157 5.72558C4.71986 6.31125 2.02092 5.32891 0.40886 3.21169C-0.260279 2.33287 -0.0902975 1.078 0.788524 0.40886Z" fill="var(--fill-0, #6750A4)"/>
</svg>
