<svg preserveAspectRatio="none" width="100%" height="100%" overflow="visible" style="display: block;" viewBox="0 0 79 188" fill="none" xmlns="http://www.w3.org/2000/svg">
<path id="Track" fill-rule="evenodd" clip-rule="evenodd" d="M77.6818 6.11402C79.7742 11.1654 77.3754 16.9566 72.324 19.049L65.5421 21.8582L59.4142 25.0482L53.5876 28.7601L48.1067 32.9657L43.0132 37.633L38.3459 42.7265L34.1403 48.2073L30.4284 54.0339L27.2384 60.1618L24.5946 66.5444L22.5172 73.1332L21.0219 79.8779L20.1202 86.7273L19.8189 93.6292L20.1202 100.531L21.0219 107.381L22.5172 114.125L24.5946 120.714L27.2384 127.097L30.4284 133.224L34.1403 139.051L38.3459 144.532L43.0133 149.625L48.1068 154.293L53.5876 158.498L59.4142 162.21L65.542 165.4L72.324 168.209C77.3754 170.302 79.7742 176.093 77.6818 181.144C75.5895 186.196 69.7983 188.595 64.7469 186.502L57.1662 183.362L49.5047 179.374L42.22 174.733L35.3674 169.475L28.9992 163.639L23.1638 157.271L17.9057 150.419L13.2647 143.134L9.27642 135.472L5.971 127.492L3.37366 119.255L1.50418 110.822L0.376757 102.258L0 93.6292L0.376757 85L1.50418 76.4364L3.37366 68.0037L5.971 59.766L9.27642 51.786L13.2647 44.1245L17.9057 36.8397L23.1638 29.9872L28.9992 23.619L35.3674 17.7836L42.22 12.5254L49.5047 7.88452L57.1662 3.89619L64.7469 0.756185C69.7983 -1.33618 75.5895 1.0626 77.6818 6.11402Z" fill="var(--fill-0, #E8DEF8)"/>
</svg>
