<svg preserveAspectRatio="none" width="100%" height="100%" overflow="visible" style="display: block;" viewBox="0 0 16 38" fill="none" xmlns="http://www.w3.org/2000/svg">
<path id="Track" fill-rule="evenodd" clip-rule="evenodd" d="M15.6933 1.23516C16.116 2.25564 15.6314 3.42558 14.6109 3.84828L13.2408 4.41579L12.0029 5.06023L10.8258 5.81012L9.71853 6.65974L8.68954 7.60263L7.74665 8.63161L6.89703 9.73886L6.14715 10.9159L5.50271 12.1539L4.96861 13.4433L4.54893 14.7744L4.24686 16.1369L4.06469 17.5207L4.00381 18.915L4.06469 20.3093L4.24686 21.693L4.54893 23.0556L4.96861 24.3867L5.50271 25.6761L6.14715 26.914L6.89704 28.0911L7.74665 29.1984L8.68955 30.2274L9.71854 31.1702L10.8258 32.0199L12.0029 32.7697L13.2408 33.4142L14.6109 33.9817C15.6314 34.4044 16.116 35.5743 15.6933 36.5948C15.2706 37.6153 14.1007 38.0999 13.0802 37.6772L11.5487 37.0429L10.001 36.2371L8.52928 35.2996L7.14493 34.2373L5.85842 33.0585L4.67956 31.772L3.6173 30.3876L2.67975 28.9159L1.87402 27.3682L1.20626 25.756L0.681548 24.0919L0.303874 22.3883L0.0761126 20.6583L0 18.915L0.0761126 17.1717L0.303874 15.4417L0.681548 13.7381L1.20626 12.0739L1.87402 10.4618L2.67975 8.91404L3.6173 7.44237L4.67956 6.05801L5.85842 4.77151L7.14493 3.59264L8.52928 2.53039L10.001 1.59283L11.5487 0.787108L13.0802 0.152765C14.1007 -0.269936 15.2706 0.214667 15.6933 1.23516Z" fill="var(--fill-0, #E8DEF8)"/>
</svg>
